<svg xmlns="http://www.w3.org/2000/svg" viewBox="0 0 242.59 11.13">
  <defs>
    <style>.cls-1{fill:#ffffff;}.cls-2{fill:none;stroke:#ffffff;stroke-miterlimit:10;stroke-width:0.5px;}</style>
  </defs>
  <title>Asset 3</title>
  <g id="Layer_2" data-name="Layer 2">
    <g id="Layer_1-2" data-name="Layer 1">
      <path class="cls-1" d="M11.44,11H8.18V6.77H3.27V11H0V.17H3.27v4H8.18v-4h3.26Z"/>
      <path class="cls-1" d="M31.09,5.57a5.7,5.7,0,0,1-.7,2.79,5.06,5.06,0,0,1-2.08,2,7,7,0,0,1-3.37.75,6.85,6.85,0,0,1-3.4-.78A5.08,5.08,0,0,1,19.47,8.3a5.73,5.73,0,0,1-.68-2.73,5.75,5.75,0,0,1,.67-2.73,5,5,0,0,1,2.07-2A6.89,6.89,0,0,1,24.94,0a7.52,7.52,0,0,1,2.68.45,5.36,5.36,0,0,1,1.93,1.21A5.09,5.09,0,0,1,30.7,3.44,5.86,5.86,0,0,1,31.09,5.57Zm-3.33,0a3.3,3.3,0,0,0-.18-1.11A2.38,2.38,0,0,0,27,3.58,2.52,2.52,0,0,0,26.15,3a3.29,3.29,0,0,0-1.21-.21,2.75,2.75,0,0,0-2.06.77,2.75,2.75,0,0,0-.75,2,2.75,2.75,0,0,0,.75,2,2.75,2.75,0,0,0,2.06.77A3.08,3.08,0,0,0,26.47,8a2.37,2.37,0,0,0,1-1A3.07,3.07,0,0,0,27.76,5.57Z"/>
      <path class="cls-1" d="M49.74,6.14a5,5,0,0,1-.52,2.37,4.17,4.17,0,0,1-1.37,1.55,5.93,5.93,0,0,1-1.84.82,8,8,0,0,1-2,.25,7.83,7.83,0,0,1-2.68-.47,4.75,4.75,0,0,1-2.18-1.59,4.64,4.64,0,0,1-.87-2.93v-6h3.26V5.3a4.39,4.39,0,0,0,.31,1.77,2.14,2.14,0,0,0,.86,1,2.73,2.73,0,0,0,2.57,0,2.12,2.12,0,0,0,.86-1,4.37,4.37,0,0,0,.31-1.77V.17h3.27Z"/>
      <path class="cls-1" d="M65.22,7.85A3,3,0,0,1,64.7,9.6a3.28,3.28,0,0,1-1.45,1.14,5.43,5.43,0,0,1-2.13.39q-.34,0-.82,0a9.3,9.3,0,0,1-1.3-.24,10.17,10.17,0,0,1-1.68-.58V7.62a11.79,11.79,0,0,0,1.61.84,4.31,4.31,0,0,0,1.7.34,1.49,1.49,0,0,0,1.08-.28A.81.81,0,0,0,62,8a.88.88,0,0,0-.42-.74,6,6,0,0,0-1.23-.62,9.72,9.72,0,0,1-1.56-.82,3.7,3.7,0,0,1-1.1-1.11,2.84,2.84,0,0,1-.43-1.57,3,3,0,0,1,.43-1.58A3,3,0,0,1,59,.44,5,5,0,0,1,61.12,0a7.52,7.52,0,0,1,1.68.18,7.3,7.3,0,0,1,1.27.39,5.08,5.08,0,0,1,.69.34V3.47a9,9,0,0,0-1.48-.85,4.13,4.13,0,0,0-1.75-.37,1.35,1.35,0,0,0-.88.23.73.73,0,0,0-.27.58.71.71,0,0,0,.27.55,4.78,4.78,0,0,0,1,.57,19.54,19.54,0,0,1,2,1.05,4,4,0,0,1,1.18,1.08A2.62,2.62,0,0,1,65.22,7.85Z"/>
      <path class="cls-1" d="M80.95,11H72.78V.17h8V2.34H76v2h4.55V6.5H76V8.81h4.9Z"/>
      <path class="cls-1" d="M96,7.85a3,3,0,0,1-.52,1.76,3.28,3.28,0,0,1-1.45,1.14,5.43,5.43,0,0,1-2.13.39q-.34,0-.82,0a9.3,9.3,0,0,1-1.3-.24,10.17,10.17,0,0,1-1.68-.58V7.62a11.79,11.79,0,0,0,1.61.84,4.31,4.31,0,0,0,1.7.34,1.49,1.49,0,0,0,1.08-.28A.81.81,0,0,0,92.78,8a.88.88,0,0,0-.42-.74,6,6,0,0,0-1.23-.62,9.72,9.72,0,0,1-1.56-.82,3.7,3.7,0,0,1-1.1-1.11A2.84,2.84,0,0,1,88,3.15a3,3,0,0,1,.43-1.58A3,3,0,0,1,89.79.44,5,5,0,0,1,91.95,0a7.52,7.52,0,0,1,1.68.18,7.3,7.3,0,0,1,1.27.39,5.08,5.08,0,0,1,.69.34V3.47a9,9,0,0,0-1.48-.85,4.13,4.13,0,0,0-1.75-.37,1.35,1.35,0,0,0-.88.23.73.73,0,0,0-.27.58.71.71,0,0,0,.27.55,4.78,4.78,0,0,0,1,.57,19.54,19.54,0,0,1,2,1.05,4,4,0,0,1,1.18,1.08A2.62,2.62,0,0,1,96,7.85Z"/>
      <path class="cls-1" d="M117.77,3a3.12,3.12,0,0,1-.38,1.52,2.76,2.76,0,0,1-1.14,1.11,3.81,3.81,0,0,1-1.84.41,3.74,3.74,0,0,1-1.86-.43,2.77,2.77,0,0,1-1.13-1.12A3.13,3.13,0,0,1,111.05,3a3.14,3.14,0,0,1,.37-1.49A2.75,2.75,0,0,1,112.55.42,3.77,3.77,0,0,1,114.41,0a4.11,4.11,0,0,1,1.46.24,2.93,2.93,0,0,1,1.06.66,2.79,2.79,0,0,1,.63,1A3.2,3.2,0,0,1,117.77,3Zm-1.82,0a1.8,1.8,0,0,0-.1-.61,1.29,1.29,0,0,0-.3-.48,1.37,1.37,0,0,0-.48-.32,1.8,1.8,0,0,0-.66-.11,1.51,1.51,0,0,0-1.13.42,1.5,1.5,0,0,0-.41,1.1,1.5,1.5,0,0,0,.41,1.1,1.5,1.5,0,0,0,1.13.42,1.68,1.68,0,0,0,.84-.19,1.29,1.29,0,0,0,.53-.54A1.67,1.67,0,0,0,115.95,3Z"/>
      <path class="cls-1" d="M126.83,3.6h-2.46V6h-1.78V.08h4.24V1.27h-2.46V2.41h2.46Z"/>
      <path class="cls-1" d="M156.43,11h-3.26V6.77h-4.91V11H145V.17h3.27v4h4.91v-4h3.26Z"/>
      <path class="cls-1" d="M172.66,11h-8.16V.17h8V2.34h-4.77v2h4.55V6.5h-4.55V8.81h4.9Z"/>
      <path class="cls-1" d="M192.08,11h-3.34l-.88-2.2h-4.7l-.9,2.2h-3.34L183.7.17h3.61Zm-5-4.08-1.59-4-1.6,4Z"/>
      <path class="cls-1" d="M208.31.17l-4.88,11h-2.16l-4.79-11h3.4l2.48,6.25L204.9.17Z"/>
      <path class="cls-1" d="M223.3,11h-8.16V.17h8V2.34H218.4v2h4.55V6.5H218.4V8.81h4.9Z"/>
      <path class="cls-1" d="M242.59,11h-2.91l-5.62-6v6h-3.23V.17h2.9l5.6,6v-6h3.26Z"/>
      <line class="cls-2" x1="104.08" y1="6.93" x2="136.08" y2="6.93"/>
    </g>
  </g>
</svg>
