<svg xmlns="http://www.w3.org/2000/svg" viewBox="0 0 612 497.12">
  <defs>
    <style>.cls-1{fill:#010002;}</style>
  </defs>
  <title>Asset 1</title>
  <g id="Layer_2" data-name="Layer 2">
    <g id="Capa_1" data-name="Capa 1">
      <path class="cls-1" d="M612,58.82a250.71,250.71,0,0,1-72.09,19.77A126.07,126.07,0,0,0,595.1,9.18a253.1,253.1,0,0,1-79.78,30.48A125.64,125.64,0,0,0,301.39,154.12,356.43,356.43,0,0,1,42.64,22.95,125.69,125.69,0,0,0,81.5,190.53a125.56,125.56,0,0,1-56.87-15.76v1.57a125.67,125.67,0,0,0,100.69,123.1,127.17,127.17,0,0,1-33.08,4.4,120.5,120.5,0,0,1-23.63-2.33A125.61,125.61,0,0,0,185.86,388.7,251.89,251.89,0,0,1,29.94,442.35,266.81,266.81,0,0,1,0,440.63a354.88,354.88,0,0,0,192.44,56.49c230.95,0,357.19-191.29,357.19-357.19l-.42-16.25A250.7,250.7,0,0,0,612,58.82Z"/>
    </g>
  </g>
</svg>
